<svg xmlns="http://www.w3.org/2000/svg" viewBox="0 0 512 512">
    <path fill="#fff" stroke="#000" stroke-width="20" d="M423.547,323.115l-320-320c-3.051-3.051-7.637-3.947-11.627-2.304s-6.592,5.547-6.592,9.856V480c0,4.501,2.837,8.533,7.083,10.048c4.224,1.536,8.981,0.192,11.84-3.285l85.205-104.128l56.853,123.179c1.792,3.883,5.653,6.187,9.685,6.187c1.408,0,2.837-0.277,4.203-0.875l74.667-32c2.645-1.131,4.736-3.285,5.76-5.973c1.024-2.688,0.939-5.675-0.277-8.299l-57.024-123.52h132.672c4.309,0,8.213-2.603,9.856-6.592C427.515,330.752,426.598,326.187,423.547,323.115z"/>
</svg>